<?xml version="1.0" encoding="UTF-8"?>
<svg width="510px" height="150px" viewBox="0 0 510 150" version="1.1" xmlns="http://www.w3.org/2000/svg" xmlns:xlink="http://www.w3.org/1999/xlink">
    <!-- Generator: Sketch 52.6 (67491) - http://www.bohemiancoding.com/sketch -->
    <title>Group 20</title>
    <desc>Created with Sketch.</desc>
    <defs>
        <polygon id="path-1" points="0.00716207632 0.628742652 117.124299 0.628742652 117.124299 149.93662 0.00716207632 149.93662"></polygon>
        <polygon id="path-3" points="0 0.538652272 69.8729301 0.538652272 69.8729301 70.5190806 0 70.5190806"></polygon>
        <polygon id="path-5" points="0.891070098 0.538652272 70.7642867 0.538652272 70.7642867 70.5190806 0.891070098 70.5190806"></polygon>
        <polygon id="path-7" points="0.891070098 0.685348592 70.7642867 0.685348592 70.7642867 70.6646293 0.891070098 70.6646293"></polygon>
        <polygon id="path-9" points="0 0.685348592 69.8729301 0.685348592 69.8729301 70.6646293 0 70.6646293"></polygon>
    </defs>
    <g id="Symbols" stroke="none" stroke-width="1" fill="none" fill-rule="evenodd">
        <g id="Logo-IES" transform="translate(-1.000000, -58.000000)">
            <g id="Group-20" transform="translate(1.000000, 58.000000)">
                <polygon id="Fill-1" fill="#1F1F1F" points="177 150 213 150 213 1 177 1"></polygon>
                <g id="Group-19">
                    <path d="M342.569845,61.4985661 C342.569845,58.3425337 342.280498,55.3270882 341.421048,52.4550987 C337.84001,37.6676522 325.50978,30.058745 310.314719,30.058745 C289.67075,30.058745 280.640804,43.5550873 277.343384,61.4985661 L342.569845,61.4985661 Z M240.358422,75.8585136 C240.358422,38.5312575 262.148323,0.627308092 310.601202,0.627308092 C360.772979,0.627308092 376.973595,40.9728789 376.973595,72.9865241 C376.973595,78.87109 376.400629,84.755656 375.681557,86.7669093 L277.343384,86.7669093 C280.354321,105.573993 290.676305,118.2096 313.182414,118.2096 C326.082746,118.2096 337.550662,114.187093 347.586164,102.991785 L371.667929,124.094166 C356.043143,141.46382 336.977696,149.936333 312.895931,149.936333 C263.580738,149.936333 240.358422,114.476874 240.358422,75.8585136 Z" id="Fill-2" fill="#1F1F1F"></path>
                    <g id="Group-6" transform="translate(392.481782, 0.000000)">
                        <mask id="mask-2" fill="white">
                            <use xlink:href="#path-1"></use>
                        </mask>
                        <g id="Clip-5"></g>
                        <path d="M0.00716207632,109.738522 L27.8189368,97.3898276 C31.6893229,107.730137 39.2839886,120.936699 58.3523006,120.936699 C74.5500524,120.936699 81.5746169,111.459994 81.5746169,103.851087 C81.5746169,79.7332607 9.61293884,95.9552674 9.61293884,45.277994 C9.61293884,14.985821 35.1299844,0.628742652 62.7956528,0.628742652 C87.4503843,0.628742652 106.229348,12.4007436 117.124299,31.7816518 L90.0315966,46.5662291 C85.155655,37.6690868 77.1312647,28.3358382 61.6497206,28.3358382 C50.1789391,28.3358382 43.1543747,33.9363612 43.1543747,40.6845323 C43.1543747,62.3607368 115.978367,49.4382186 115.978367,102.129614 C115.978367,135.293777 87.1667661,149.937767 60.0711989,149.937767 C29.9675597,149.937767 7.03172653,131.847963 0.00716207632,109.738522" id="Fill-4" fill="#1F1F1F" mask="url(#mask-2)"></path>
                    </g>
                    <g id="Group-9">
                        <mask id="mask-4" fill="white">
                            <use xlink:href="#path-3"></use>
                        </mask>
                        <g id="Clip-8"></g>
                        <path d="M34.9363218,0.53836536 C54.2309554,0.53836536 69.8729301,16.2037626 69.8729301,35.5272884 C69.8729301,54.8536833 54.2309554,70.5190806 34.9363218,70.5190806 C15.6416882,70.5190806 -0.000286483053,54.8536833 -0.000286483053,35.5272884 C-0.000286483053,16.2037626 15.6416882,0.53836536 34.9363218,0.53836536" id="Fill-7" fill="#FF4623" mask="url(#mask-4)"></path>
                    </g>
                    <g id="Group-12" transform="translate(78.410590, 0.000000)">
                        <mask id="mask-6" fill="white">
                            <use xlink:href="#path-5"></use>
                        </mask>
                        <g id="Clip-11"></g>
                        <path d="M35.8276784,0.53836536 C55.122312,0.53836536 70.7642867,16.2037626 70.7642867,35.5272884 C70.7642867,54.8536833 55.122312,70.5190806 35.8276784,70.5190806 C16.5330448,70.5190806 0.891070098,54.8536833 0.891070098,35.5272884 C0.891070098,16.2037626 16.5330448,0.53836536 35.8276784,0.53836536" id="Fill-10" fill="#FF4623" mask="url(#mask-6)"></path>
                    </g>
                    <g id="Group-15" transform="translate(78.410590, 79.271990)">
                        <mask id="mask-8" fill="white">
                            <use xlink:href="#path-7"></use>
                        </mask>
                        <g id="Clip-14"></g>
                        <path d="M70.7642867,35.6742717 C70.7642867,55.0006666 55.122312,70.6660638 35.8276784,70.6660638 C16.5330448,70.6660638 0.891070098,55.0006666 0.891070098,35.6742717 C0.891070098,16.3507459 16.5330448,0.685348592 35.8276784,0.685348592 C55.122312,0.685348592 70.7642867,16.3507459 70.7642867,35.6742717 Z" id="Fill-13" fill="#FF4623" mask="url(#mask-8)"></path>
                    </g>
                    <g id="Group-18" transform="translate(0.000000, 79.271990)">
                        <mask id="mask-10" fill="white">
                            <use xlink:href="#path-9"></use>
                        </mask>
                        <g id="Clip-17"></g>
                        <path d="M34.9363218,0.685348592 C54.2309554,0.685348592 69.8729301,16.3507459 69.8729301,35.6742717 C69.8729301,55.0006666 54.2309554,70.6660638 34.9363218,70.6660638 C15.6416882,70.6660638 -0.000286483053,55.0006666 -0.000286483053,35.6742717 C-0.000286483053,16.3507459 15.6416882,0.685348592 34.9363218,0.685348592" id="Fill-16" fill="#FF4623" mask="url(#mask-10)"></path>
                    </g>
                </g>
            </g>
        </g>
    </g>
</svg>